<?xml version="1.0" encoding="UTF-8" standalone="no"?>
<!-- Created with Inkscape (http://www.inkscape.org/) -->

<svg
   width="485.74188"
   height="485.15344"
   viewBox="0 0 128.5192 128.36352"
   version="1.1"
   id="svg5"
   inkscape:version="1.2.2 (b0a8486541, 2022-12-01)"
   sodipodi:docname="webui-wire.svg"
   xml:space="preserve"
   xmlns:inkscape="http://www.inkscape.org/namespaces/inkscape"
   xmlns:sodipodi="http://sodipodi.sourceforge.net/DTD/sodipodi-0.dtd"
   xmlns="http://www.w3.org/2000/svg"
   xmlns:svg="http://www.w3.org/2000/svg"><sodipodi:namedview
     id="namedview7"
     pagecolor="#ffffff"
     bordercolor="#000000"
     borderopacity="0.25"
     inkscape:showpageshadow="2"
     inkscape:pageopacity="0.0"
     inkscape:pagecheckerboard="0"
     inkscape:deskcolor="#d1d1d1"
     inkscape:document-units="mm"
     showgrid="false"
     inkscape:zoom="1.829812"
     inkscape:cx="296.20529"
     inkscape:cy="394.57605"
     inkscape:window-width="3840"
     inkscape:window-height="2088"
     inkscape:window-x="0"
     inkscape:window-y="0"
     inkscape:window-maximized="1"
     inkscape:current-layer="layer1" /><defs
     id="defs2"><style
       id="style8283">
      .cls-1 {
        fill: none;
      }
    </style></defs><g
     inkscape:label="Laag 1"
     inkscape:groupmode="layer"
     id="layer1"
     transform="translate(-3.292345,-1.2572224)"><g
       id="g30781"><rect
         style="fill:#261644;fill-opacity:0.907539;stroke:#aa5cdd;stroke-width:0;stroke-dasharray:none;stroke-opacity:1"
         id="rect19462"
         width="127.34434"
         height="128.36351"
         x="3.2923455"
         y="1.2572229"
         ry="7.048614" /><g
         id="g30748"><path
           style="fill:#da50a1;stroke-width:0.0863198"
           d="M 84.945047,31.087879 H 76.59445 c -1.152782,0 -2.087672,-0.865354 -2.087672,-1.933135 0,-1.067615 0.93489,-1.933135 2.087672,-1.933135 h 8.350597 c 1.153048,0 2.087675,0.86552 2.087675,1.933135 0,1.067698 -0.934533,1.933135 -2.087675,1.933135 z"
           id="path7480" /><path
           style="fill:#dc73ae;stroke-width:0.0843087"
           d="m 57.264243,100.29529 h -9.123069 c -1.259812,0 -2.280792,-0.7559 -2.280792,-1.68797 0,-0.932229 1.02098,-1.687988 2.280792,-1.687988 h 9.123069 c 1.259713,0 2.280792,0.755759 2.280792,1.687988 -9.8e-5,0.93207 -1.021079,1.68797 -2.280792,1.68797 z"
           id="path7478" /><path
           style="fill:#5b699c;stroke-width:0.116266"
           d="m 76.050552,101.03393 -10.312267,0.41546 c -0.938919,0.0378 -1.595205,-0.70036 -1.595205,-3.07706 0,-2.377077 1.117718,-1.930171 2.056919,-1.950517 l 10.004793,-0.216729 c 2.813802,-0.06095 5.8984,-7.836359 5.8984,-14.955926 0,-7.119566 -3.163885,-15.526468 -5.977968,-15.500659 l -20.380877,0.186917 c -4.68975,0.04301 -8.611929,-7.346185 -8.611929,-19.212685 0,-11.8665 4.091145,-19.258465 8.780816,-19.20125 l 9.750881,0.118966 c 0.939498,0.01146 1.881142,-0.51132 1.881142,1.865753 0,2.377259 -0.931479,3.185892 -1.597793,3.176466 L 55.637786,32.536829 c -2.813779,-0.03981 -5.103191,7.065966 -5.103191,14.185902 0,7.119937 2.38696,14.561324 5.200731,14.571176 l 20.443719,0.07157 c 4.689837,0.01642 8.376948,7.923813 8.376948,19.790312 0,11.866499 -3.817569,19.689281 -8.505441,19.878141 z"
           id="path7482"
           sodipodi:nodetypes="sssssssssssssssssss" /><path
           style="fill:#2d4175;stroke-width:0;stroke-dasharray:none"
           d="m 76.077445,60.63297 -9.766385,0.324166 -0.273034,5.086243 10.539727,0.496606 c 2.781986,0.13108 4.70573,6.430219 4.70573,13.459565 0,7.029345 -2.590997,15.108745 -5.358503,15.418471 l -9.635942,1.078408 -0.03795,-1.226026 -0.273541,6.422177 v 0 h 10.099892 c 4.640919,0 9.43487,-9.394169 9.43487,-21.110293 0,-11.716127 -4.795288,-20.103364 -9.43487,-19.949366 z"
           id="path7484"
           sodipodi:nodetypes="sccsssccccssss" /><path
           style="fill:#5b699c;stroke-width:0.0861798"
           d="M 65.868056,92.287429 H 54.133115 c -1.079992,0 -1.955852,0.920884 -1.955852,2.056791 v 8.22706 c 0,1.13574 0.87586,2.0568 1.955852,2.0568 h 11.734941 c 1.080245,0 1.955852,-0.92106 1.955852,-2.0568 v -8.22706 c 0,-1.135907 -0.875607,-2.056791 -1.955852,-2.056791 z"
           id="path7486" /><path
           style="fill:#2d4175;stroke-width:0.0859558"
           d="M 78.530137,23.739417 H 65.626264 c -1.187571,0 -2.150676,0.833106 -2.150676,1.860736 v 7.442868 c 0,1.027631 0.963105,1.860737 2.150676,1.860737 h 12.903873 c 1.187848,0 2.150676,-0.833106 2.150676,-1.860737 v -7.442868 c 0,-1.02763 -0.962735,-1.860736 -2.150676,-1.860736 z"
           id="path7488" /></g><rect
         id="_Transparent_Rectangle_"
         data-name="&lt;Transparent Rectangle&gt;"
         class="cls-1"
         width="51.127815"
         height="51.260864"
         x="80.683739"
         y="4.0109301"
         style="stroke-width:1.59982" /><g
         id="g30693"><rect
           style="fill:#a00080;fill-opacity:1;stroke:#aa5cdd;stroke-width:0;stroke-dasharray:none;stroke-opacity:1"
           id="rect12485"
           width="26.976868"
           height="25.038107"
           x="99.249107"
           y="21.684395"
           ry="1.2699573" /><rect
           style="fill:#4d4d4d;fill-opacity:1;stroke:#aa5cdd;stroke-width:0;stroke-dasharray:none;stroke-opacity:1"
           id="rect18634"
           width="11.799934"
           height="25.474756"
           x="85.657738"
           y="21.207668"
           ry="1.2065431" /><ellipse
           cx="112.63863"
           cy="16.826147"
           id="circle8287"
           style="fill:#d45500;stroke-width:1.59982"
           rx="1.5977442"
           ry="1.601902" /><ellipse
           cx="117.43186"
           cy="16.826147"
           id="circle8289"
           style="fill:#800000;stroke-width:1.59982"
           rx="1.5977442"
           ry="1.601902" /><ellipse
           cx="122.2251"
           cy="16.826147"
           id="circle8291"
           style="fill:#800080;stroke-width:1.59982"
           rx="1.5977442"
           ry="1.601902" /><path
           d="M 125.42058,10.418538 H 87.074721 a 3.1991634,3.2074883 0 0 0 -3.195488,3.203804 v 32.03804 a 3.1991634,3.2074883 0 0 0 3.195488,3.203803 h 38.345859 a 3.1991634,3.2074883 0 0 0 3.19549,-3.203803 v -32.03804 a 3.1991634,3.2074883 0 0 0 -3.19549,-3.203804 z m 0,3.203804 V 20.02995 H 87.074721 v -6.407608 z m -38.345859,9.611411 h 9.586471 V 45.660382 H 87.074721 Z M 99.856678,45.660382 V 23.233753 h 25.563902 v 22.426629 z"
           id="path8293"
           style="fill:#6100d6;fill-opacity:1;stroke-width:1.59982" /><text
           xml:space="preserve"
           style="font-size:2.50987px;fill:#000000;fill-opacity:1;stroke:#aa5cdd;stroke-width:0;stroke-dasharray:none;stroke-opacity:1"
           x="81.33284"
           y="57.59396"
           id="text18419-9"
           transform="scale(1.3175838,0.75896501)"><tspan
             sodipodi:role="line"
             id="tspan18417-1"
             style="fill:#000000;stroke-width:0"
             x="81.33284"
             y="57.59396">Get Wired</tspan></text><text
           xml:space="preserve"
           style="font-size:2.50987px;fill:#000000;fill-opacity:1;stroke:#aa5cdd;stroke-width:0;stroke-dasharray:none;stroke-opacity:1"
           x="78.809387"
           y="50.663654"
           id="text18419-35"
           transform="scale(1.3175838,0.75896501)"><tspan
             sodipodi:role="line"
             id="tspan18417-62"
             style="fill:#000000;stroke-width:0"
             x="78.809387"
             y="50.663654">Get Wired</tspan></text><text
           xml:space="preserve"
           style="font-size:2.50987px;fill:#000000;fill-opacity:1;stroke:#aa5cdd;stroke-width:0;stroke-dasharray:none;stroke-opacity:1"
           x="76.991074"
           y="34.068569"
           id="text18419"
           transform="scale(1.3175838,0.75896501)"><tspan
             sodipodi:role="line"
             id="tspan18417"
             style="fill:#000000;stroke-width:0"
             x="76.991074"
             y="34.068569">Get Wired</tspan></text><text
           xml:space="preserve"
           style="font-size:2.50987px;fill:#000000;fill-opacity:1;stroke:#aa5cdd;stroke-width:0;stroke-dasharray:none;stroke-opacity:1"
           x="82.87114"
           y="39.682934"
           id="text18419-3"
           transform="scale(1.3175838,0.75896501)"><tspan
             sodipodi:role="line"
             id="tspan18417-6"
             style="fill:#000000;stroke-width:0"
             x="82.87114"
             y="39.682934">Get Wired</tspan></text><text
           xml:space="preserve"
           style="font-size:2.50987px;fill:#000000;fill-opacity:1;stroke:#aa5cdd;stroke-width:0;stroke-dasharray:none;stroke-opacity:1"
           x="76.651886"
           y="-43.385662"
           id="text18419-7"
           transform="scale(1.3175838,-0.75896501)"><tspan
             sodipodi:role="line"
             id="tspan18417-5"
             style="fill:#000000;stroke-width:0"
             x="76.651886"
             y="-43.385662">Get Wired</tspan></text></g><g
         id="g30699"><ellipse
           id="circle"
           fill="#ffffff"
           cx="29.517054"
           cy="100.16017"
           style="stroke-width:0.0838923"
           rx="21.352858"
           ry="21.112913" /><path
           id="blue-piece"
           fill="#3e5ba9"
           d="m 46.318528,113.19123 c 2.850952,-3.5888 4.551296,-8.11356 4.551296,-13.03105 0,-11.660309 -9.55995,-21.112916 -21.352857,-21.112916 -2.565282,0 -5.024767,0.447714 -7.303368,1.267728 8.668774,4.496232 20.135516,19.165565 24.104929,32.876238 z"
           style="fill:#6100d6;fill-opacity:1;stroke-width:0.0838923" /><path
           id="left-red-piece"
           fill="#9f1d20"
           d="M 26.45881,92.514855 C 23.127891,88.96677 19.397661,86.14894 15.446894,84.280091 10.983255,88.149842 8.1641951,93.82913 8.1641951,100.16018 c 0,5.32333 1.9932699,10.18586 5.2811609,13.89962 2.89845,-8.61033 8.347417,-16.90932 13.013454,-21.544945 z"
           style="fill:#800000;stroke-width:0.0838923" /><path
           id="bottom-red-piece"
           fill="#9f1d20"
           d="m 30.393295,97.302305 c -4.622673,4.926005 -9.229145,13.549175 -10.89625,21.505065 2.988218,1.57304 6.398442,2.4658 10.020007,2.4658 3.723313,0 7.223387,-0.94314 10.270915,-2.5996 -1.756618,-8.02539 -5.072519,-15.37532 -9.394672,-21.371265 z"
           style="fill:#800000;stroke-width:0.0838923" /></g></g></g></svg>
